# xmcd
#
# Track frame offsets:
#	180
#	15129
#	29697
#	44385
#	62239
#	74969
#	87909
#	102684
#	113856
#	126755
#	142650
#	155104
#	168465
#	186838
#	202594
#
# Disc length: 2906 seconds
#
# Revision: 1
# Processed by: cddbd v1.5.1PL2 Copyright (c) Steve Scherf et al.
# Submitted via: audiograbber 1.83.01
#
DISCID=d40b580f
DTITLE=Sound Choice - SC8104
DYEAR=1900
DGENRE=Karaoke Country
TTITLE0=Mattea, Kathy - Eighteen Wheels And A Dozen Roses
TTITLE1=Daniels, Charlie - South'S Gonna Do It Again, The
TTITLE2=Strait, George - Ocean Front Property
TTITLE3=Raye, Collin - Love, Me
TTITLE4=Hill, Faith - Wild One
TTITLE5=Loveless, Patty - I'M That Kind Of Girl
TTITLE6=Greenwood, Lee - God Bless The U.S.A.
TTITLE7=Cline, Patsy - Leavin' On Your Mind
TTITLE8=Tippin, Aaron - There Ain'T Nothing Wrong With The Radio
TTITLE9=Dean, Billy - We Just Disagree
TTITLE10=West, Shelly - Jose Cuervo
TTITLE11=Kentucky Headhunters - Dumas Walker
TTITLE12=Little Texas - God Blessed Texas
TTITLE13=Keith, Toby - Should'Ve Been A Cowboy
TTITLE14=Tillis, Pam - Cleopatra, Queen Of Denial
EXTD=
EXTT0=
EXTT1=
EXTT2=
EXTT3=
EXTT4=
EXTT5=
EXTT6=
EXTT7=
EXTT8=
EXTT9=
EXTT10=
EXTT11=
EXTT12=
EXTT13=
EXTT14=
PLAYORDER=
